<?xml version="1.0" encoding="UTF-8" standalone="no"?>
<!-- Created with Inkscape (http://www.inkscape.org/) -->

<svg
   width="100mm"
   height="100mm"
   viewBox="0 0 100 99.999998"
   version="1.1"
   id="svg1"
   xml:space="preserve"
   inkscape:version="1.4 (e7c3feb100, 2024-10-09)"
   sodipodi:docname="farmbot.svg"
   inkscape:export-filename="farmbot.jpg"
   inkscape:export-xdpi="127"
   inkscape:export-ydpi="127"
   xmlns:inkscape="http://www.inkscape.org/namespaces/inkscape"
   xmlns:sodipodi="http://sodipodi.sourceforge.net/DTD/sodipodi-0.dtd"
   xmlns="http://www.w3.org/2000/svg"
   xmlns:svg="http://www.w3.org/2000/svg"><sodipodi:namedview
     id="namedview1"
     pagecolor="#ffffff"
     bordercolor="#000000"
     borderopacity="0.25"
     inkscape:showpageshadow="2"
     inkscape:pageopacity="0.0"
     inkscape:pagecheckerboard="0"
     inkscape:deskcolor="#d1d1d1"
     inkscape:document-units="mm"
     inkscape:zoom="1.5707826"
     inkscape:cx="174.43534"
     inkscape:cy="305.58016"
     inkscape:window-width="3412"
     inkscape:window-height="2116"
     inkscape:window-x="0"
     inkscape:window-y="0"
     inkscape:window-maximized="1"
     inkscape:current-layer="layer1"><inkscape:page
       x="0"
       y="0"
       width="100"
       height="100"
       id="page2"
       margin="0"
       bleed="0" /></sodipodi:namedview><defs
     id="defs1" /><g
     inkscape:label="Layer 1"
     inkscape:groupmode="layer"
     id="layer1"
     transform="translate(-99.659673,-89.572937)"><path
       id="rect1-2"
       style="fill:#005172;fill-opacity:1;fill-rule:evenodd;stroke-width:1.86357;-inkscape-stroke:none"
       d="m 149.11764,109.41255 c -0.41336,0 -2.84308,3.12461 -5.39864,6.94273 l -3.50728,5.23844 h -19.78226 c -9.59157,0 -17.31315,7.72158 -17.31315,17.31316 v 18.11259 c 0,6.97945 4.09808,12.95216 10.02058,15.69671 v -2.11305 c 0,-3.77643 3.0402,-6.81715 6.81663,-6.81715 h 7.9375 c 3.77644,0 6.81664,3.04072 6.81664,6.81715 v 3.72949 h 28.81995 v -3.72949 c 0,-3.77643 3.0402,-6.81715 6.81664,-6.81715 h 7.9375 c 3.77643,0 6.81664,3.04072 6.81664,6.81715 v 2.11305 c 5.92249,-2.74455 10.02057,-8.71726 10.02057,-15.69671 v -18.11259 c 0,-9.59158 -7.72157,-17.31316 -17.31315,-17.31316 h -19.78277 l -3.50677,-5.23844 c -2.55551,-3.81812 -4.98528,-6.94273 -5.39863,-6.94273 z m -24.75715,26.03201 h 49.51377 c 4.55358,0 8.21966,3.66555 8.21966,8.21913 v 8.59896 c 0,4.55358 -3.66608,8.21965 -8.21966,8.21965 h -49.51377 c -4.55358,0 -8.21965,-3.66607 -8.21965,-8.21965 v -8.59896 c 0,-4.55358 3.66607,-8.21913 8.21965,-8.21913 z m -3.0055,31.0844 c -3.37108,0 -6.0849,2.71434 -6.0849,6.08542 v 10.07794 c 0,3.37107 2.71382,6.0849 6.0849,6.0849 h 5.13405 c 3.37108,0 6.08542,-2.71383 6.08542,-6.0849 v -10.07794 c 0,-3.37108 -2.71434,-6.08542 -6.08542,-6.08542 z m 50.39072,0 c -3.37107,0 -6.0849,2.71434 -6.0849,6.08542 v 10.07794 c 0,3.37107 2.71383,6.0849 6.0849,6.0849 h 5.13406 c 3.37107,0 6.0849,-2.71383 6.0849,-6.0849 v -10.07794 c 0,-3.37108 -2.71383,-6.08542 -6.0849,-6.08542 z" /><path
       id="path1-9"
       style="fill:#008a00;fill-opacity:1;stroke-width:4.52247"
       d="m 108.12427,90.500529 c -1.0344,0.01018 -1.22213,0.659321 -1.21594,2.356445 0.0201,4.850033 5.46021,14.790806 10.25932,18.746656 2.52833,2.08404 6.77094,4.56119 9.42785,5.50458 7.69132,2.7309 9.20216,2.47757 8.27184,-1.38648 -3.05339,-12.68191 -12.00265,-21.67861 -24.74629,-24.877036 -0.8814,-0.22122 -1.52659,-0.348793 -1.99678,-0.344165 z m 81.98673,0 c -0.47015,-0.0046 -1.11545,0.122945 -1.99678,0.344165 -12.74283,3.198426 -21.69153,12.195126 -24.74474,24.877036 -0.93023,3.86405 0.58046,4.11738 8.27133,1.38648 2.65672,-0.94339 6.89913,-3.42054 9.42733,-5.50458 4.79879,-3.95585 10.23878,-13.896623 10.25881,-18.746656 0.006,-1.697124 -0.18162,-2.346263 -1.21595,-2.356445 z m -55.35218,49.807291 a 8.4791775,8.4791775 0 0 0 -8.47907,8.47907 8.4791775,8.4791775 0 0 0 8.47907,8.47907 8.4791775,8.4791775 0 0 0 8.47907,-8.47907 8.4791775,8.4791775 0 0 0 -8.47907,-8.47907 z m 28.71763,0 a 8.4791775,8.4791775 0 0 0 -8.47959,8.47907 8.4791775,8.4791775 0 0 0 8.47959,8.47907 8.4791775,8.4791775 0 0 0 8.47907,-8.47907 8.4791775,8.4791775 0 0 0 -8.47907,-8.47907 z" /></g></svg>
